/* XPM */
static char *_c30936763b644c7aa591c8b7ae09090[] = {
/* columns rows colors chars-per-pixel */
"64 64 236 2 ",
"   c #DC0E72",
".  c #D30F78",
"X  c #D51277",
"o  c #D4147A",
"O  c #D5187D",
"+  c #D91B7A",
"@  c #E40466",
"#  c #E40D6C",
"$  c #E3126F",
"%  c #EC156D",
"&  c #EB186F",
"*  c #E31471",
"=  c #EA1670",
"-  c #E31B75",
";  c #EB1D74",
":  c #DE267E",
">  c #ED2476",
",  c #E3267E",
"<  c #EA267B",
"1  c #E5297D",
"2  c #EC2A7B",
"3  c #EC327D",
"4  c #7F6EE5",
"5  c #7E6FE9",
"6  c #7F70E6",
"7  c #7C72EC",
"8  c #6E77F9",
"9  c #7576F4",
"0  c #7976F2",
"q  c #7579F7",
"w  c #797AF1",
"e  c #727DF9",
"r  c #BD2F9A",
"t  c #BA349E",
"y  c #B537A3",
"u  c #B238A5",
"i  c #A43FB2",
"p  c #C71E87",
"a  c #CA1D87",
"s  c #C91E88",
"d  c #D21F84",
"f  c #C52187",
"g  c #CE2186",
"h  c #C72388",
"j  c #CB2289",
"k  c #CA2B8D",
"l  c #D42384",
"z  c #DB2581",
"x  c #D52A84",
"c  c #DB2B83",
"v  c #D12388",
"b  c #D22D8D",
"n  c #C6328D",
"m  c #DE3286",
"M  c #D5348D",
"N  c #DB358B",
"B  c #D7388F",
"V  c #DA398D",
"C  c #C63097",
"Z  c #CD3493",
"A  c #CE3B96",
"S  c #C23098",
"D  c #CA379A",
"F  c #C63D9C",
"G  c #CC3E9A",
"H  c #D23592",
"J  c #D83791",
"K  c #D43A94",
"L  c #D93A92",
"P  c #D03C99",
"I  c #E02680",
"U  c #E42E82",
"Y  c #E92D80",
"T  c #E13184",
"R  c #EB3482",
"E  c #E63A87",
"W  c #EC3C85",
"Q  c #E23789",
"!  c #E13A8C",
"~  c #BF439F",
"^  c #AD46AF",
"/  c #BF46A4",
"(  c #BE48A7",
")  c #B446AC",
"_  c #BE46A9",
"`  c #B64CAE",
"'  c #BC49AB",
"]  c #A34BBB",
"[  c #B44EB3",
"{  c #B84DB1",
"}  c #AF51B7",
"|  c #A555BE",
" . c #AB53BC",
".. c #A458BE",
"X. c #A858BF",
"o. c #B250B4",
"O. c #BA5DB6",
"+. c #B051B9",
"@. c #B359BA",
"#. c #C4419F",
"$. c #CA419D",
"%. c #D9439C",
"&. c #DF4E9C",
"*. c #EC4187",
"=. c #E7468F",
"-. c #EB428B",
";. c #F0478E",
":. c #EC4C91",
">. c #EE5294",
",. c #E4539A",
"<. c #E55A9D",
"1. c #F05396",
"2. c #F15C9A",
"3. c #F1669E",
"4. c #C344A3",
"5. c #CA43A1",
"6. c #CA48A3",
"7. c #C346A8",
"8. c #C14AA9",
"9. c #CB51A7",
"0. c #C75FAD",
"q. c #DB56A3",
"w. c #DC5BA6",
"e. c #D75DAB",
"r. c #E359A0",
"t. c #DA62AB",
"y. c #DE6AAF",
"u. c #C66EBC",
"i. c #D876BB",
"p. c #ED6AA5",
"a. c #F165A0",
"s. c #F16BA2",
"d. c #EF7BAE",
"f. c #F273A9",
"g. c #F27BAD",
"h. c #ED7FB3",
"j. c #F07DB0",
"k. c #9E5BC3",
"l. c #9B5ECB",
"z. c #965FD1",
"x. c #9A5FD0",
"c. c #A256C1",
"v. c #AA56C1",
"b. c #A25AC3",
"n. c #AD5DC3",
"m. c #A25BCA",
"M. c #B15BC0",
"N. c #9660CE",
"B. c #9960CD",
"V. c #9368CF",
"C. c #8F63D6",
"Z. c #8D66DB",
"A. c #856BDF",
"S. c #8B69DD",
"D. c #9462D4",
"F. c #9861D3",
"G. c #9568D7",
"H. c #9164D9",
"J. c #9B67D9",
"K. c #916ADC",
"L. c #9A68DA",
"P. c #8570DF",
"I. c #8972DC",
"U. c #9675D3",
"Y. c #937CDC",
"T. c #A862C6",
"R. c #A162CA",
"E. c #A962C8",
"W. c #836CE3",
"Q. c #896AE1",
"!. c #826EE9",
"~. c #8572E5",
"^. c #8171E9",
"/. c #827FEF",
"(. c #CD7EC3",
"). c #D07EC2",
"_. c #7B86F3",
"`. c #EE87B6",
"'. c #E481BB",
"]. c #EC8ABB",
"[. c #F485B1",
"{. c #F58AB6",
"}. c #F28EBB",
"|. c #F393BC",
" X c #F69ABF",
".X c #CC80C6",
"XX c #C484CD",
"oX c #D585C5",
"OX c #C28AD3",
"+X c #E68FC2",
"@X c #E796C6",
"#X c #ED9CC5",
"$X c #E192C8",
"%X c #EA9CC9",
"&X c #F49CC2",
"*X c #DCA3D6",
"=X c #EAA4CD",
"-X c #F6A2C5",
";X c #F7A6C8",
":X c #F3AACC",
">X c #F8AFCE",
",X c #F4B0CF",
"<X c #F8B1CF",
"1X c #E5A4D1",
"2X c #E3ACD6",
"3X c #EEB2D5",
"4X c #F0B3D5",
"5X c #F9B6D1",
"6X c #F6BAD4",
"7X c #F9B9D4",
"8X c #F4BEDA",
"9X c #E0BAE2",
"0X c #EAC1DF",
"qX c #F6C4DC",
"wX c #FAC4DA",
"eX c #FACCDF",
"rX c #ECCEE9",
"tX c #F6CEE3",
"yX c #FACFE0",
"uX c #EAD3EE",
"iX c #F6D1E6",
"pX c #FAD3E4",
"aX c #FCD9E7",
"sX c #F6D4E8",
"dX c #FBDBEA",
"fX c #EDDDF2",
"gX c #FCE3EE",
"hX c #EFE2F4",
"jX c #F0E2F4",
"kX c #FBE6F1",
"lX c #FBECF4",
"zX c #F8EFF8",
"xX c #FEF3F7",
"cX c #FCF4F9",
"vX c #FFFFFF",
"bX c None",
/* pixels */
"bXbXbXbXbXbXbXbXbXbXbXbXbXbXbXbXbXbXbXbXbXbXbXbXbXbXbXbXbXbXbXbXbXbXbXbXbXbXbXbXbXbXbXbXbXbXbXbXbXbXbXbXbXbXbXbXbXbXbXbXbXbXbXbX",
"bXbXbXbXbXbXbXbXbXbXbXbXbXbXbXbX_.e w bXbXbXbXbXbXbXbXbXbXbXbXbXbXbXbXbXbXbXbXbXbXbXbXbXbXbXbXbXbXbXbXbXbXbXbXbXbXbXbXbXbXbXbXbX",
"bXbXbXbXbXbXbXbXbXbXbXbXbXbXbX/.8 9 7 W.U.bXbXbXbXbXbXbXbXbXbXbXbXbXbXbXbXbXbXbXbXbXbXbXbXbXbXbXbXbXbXbXbXbXbXbXbXbXbXbXbXbXbXbX",
"bXbXbXbXbXbXbXbXbXbXbXbXbXbXY.7 9 7 !.Q.G.bXbXbXbXbXbXbXbXbXbXbXbXbXbXbXbXbXbXbXbXbXbXbXbXbXbXbXbXbXbXbXbXbXbXbXbXbXbXbXbXbXbXbX",
"bXbXbXbXK.Q.~.~./.bXbXbXbXbXY.W.!.W.W.Z.F.bXbXbXbXbXbXbXbXbXbXbXbXbXbXbXbXbXbXbXbXbXbXbXbXbXbXbXbXbXbXbXbXbXbXbXbXbXbXbXbXbXbXbX",
"bXbXbXK.S.Q.W.7 7 0 bXbXbXbXbXH.Z.K.H.x.B.bXbXbXbXbXbXbXbXbXbXbXbXbXbXbXbXbXbXbXbXbXbXbXbXbXbXbXbXbXbXbXbXbXbXbXbXbXbXbXbXbXbXbX",
"bXbXK.Z.S.W.W.^.7 8 q bXbXbXbXR.x.F.x.l.T.bXbXbXbXbXbXbXbXbXbXbXbXbXbXbXbXbXbXbXbXbXbXbXbXbXbXbXbXbXbXbXbXbXbXbXbXbXbXbXbXbXbXbX",
"bXL.C.Z.Q.W.W.7 7 9 q w bXbXbXbXm.m.m.bXbXbXbXbXbXbXbXbXbXbXbXbXbXbXbXbXbXbXbXbXbXbXbXbXbXbXbXbXbXbXbXbXbXbXbXbXbXbXbXbXbXbXbXbX",
"bXJ.H.Z.S.W.W.^.7 9 9 9 bXbXbXbXbXbXbXbXbXbXbXbXbXR.k...v. .} o.[ ' ( 8.4.6.$.bXbXbXbXbXbXbXbXbXbXbXbXbXbXbXbXbXbXbXbXbXbXbXbXbX",
"bXF.H.K.A.W.4 6 7 9 9 0 bXbXbXbXbXbXbXbXbXbXV.H.B.l.b.b.] } } [ ` ' ( 4.#.F $.K K L bXbXbXbXbXbXbXbXbXbXbXbXbXbXbXbXbXbXbXbXbXbX",
"bXF.H.Z.S.W.4 4 7 0 9 9 bXbXbXbXbXbXbXI.I.C.D.z.B.l.b.b.v. .} [ [ ` ( 7.4.$.G A B B Q Q bXbXbXbXbXbXbXbXbXbXbXbXbXbXbXbXbXbXbXbX",
"bXL.H.C.S.A.W.4 7 7 7 9 bXbXbXbXbXbXP.S.S.C.D.N.B.m.b.b. . .} o.` ' ( 4.#.$.A K K B m m T E bXbXbXbXbXbXbXbXbXbXbXbXbXbXbXbXbXbX",
"bXbXG.H.Z.Q.W.W.!.7 7 0 7 7 bXbX~.W.A.S.Z.C.H.B.B.l.b.|  . .} [ ` ( ( / #.$.G A B M V : m 3 3 bXbXbXbXbXbXbXbXbXbXbXbXbXbXbXbXbX",
"bXbXbXZ.K.Q.A.W.W.!.5 ^.7 5 5 ~.W.A.A.S.Z.D.N.B.k.b.b.|  . .} [ ` ( / ~ #.$.A K B V m m m 3 2 2 W bXbXbXbXbXbXbXbXbXbXbXbXbXbXbX",
"bXbXbXbXK.K.Q.Q.W.W.!.!.!.!.W.W.W.S.S.Z.C.D.N.l.l.k..... .} o.` ( ( ~ ~ #.F A K B N m 1 1 1 3 2 2 3 bXbXbXbXbXbXbXbXbXbXbXbXbXbX",
"bXbXbXbXbXbXbXbXQ.Q.Q.W.Q.W.Q.W.Q.S.C.H.H.z.B.k.b.b.| X. .o.[ ` ' _ ~ ~ F $.A K B M m m 1 3 3 2 2 > R bXbXbXbXbXbXbXbXbXbXbXbXbX",
"bXbXbXbXbXbXbXbXbXQ.Q.Q.Q.S.A.S.Z.C.C.D.N.N.k.k.k...] X.+.o.[ ` _ _ ~ ~ F G A K B N Q T R 3 2 2 2 2 > 3 bXbXbXbXbXbXbXbXbXbXbXbX",
"bXbXbXbXbXbXbXbXbXZ.Z.S.Q.C.Z.C.H.Z.D.N.B.k.k.k.k...X.+.o.[ ` ' _ / ~ F $.G K K B N T T R 3 2 > 2 2 2 2 W bXbXbXbXbXbXbXbXbXbXbX",
"bXbXbXbXbXbXbXbXbXK.H.Z.G.H.H.D.z.N.N.N.k.b.k.k...|  .+.o.` ) ( / #.~ #.F A B B N m T U R 3 2 3 2 2 2 2 1 < bXbXbXbXbXbXbXbXbXbX",
"bXbXbXbXbXbXbXbXbXF.x.F.H.x.B.F.N.l.k.k.k.k.k.c.| | +.o.[ ` ( _ / ~ #.#.A A B B B m U Y 3 3 > 3 2 2 2 2 < < bXbXbXbXbXbXbXbXbXbX",
"bXbX!.7 bXbXbXbXF.x.x.F.z.l.N.l.k.k.k.k...c.c...| } } o.` ` _ / 4.#.#.$.G Z B V m Q U 1 3 2 2 > 2 2 2 2 2 > -.bXbXbXbXbXbXbXbXbX",
"bXbXz.H.bXbXbXbXm.l.l.l.l.l.l.l.k.k.k.c...c.|  . .} [ ` ` ( _ / #.#.$.$.P K B B N T T 2 3 3 > 3 2 2 2 > 2 > < bXbXbXbXbXbXbXbXbX",
"bXbXbXbXbXbXbXm.m.m.m.l.m.b.m.b.c.k.c.c.| ]  .} o.o.` ` ' ( _ 4.#.$.F A K M B m m m 3 1 2 > 2 2 2 2 2 2 2 < , E bXbXbXbXbXbXbXbX",
"bXbXbXbXbXbXbXn.v.b.b.b.n.m.T.E.T.n.n.n.n.n.M.@.` ) ) ` ( _ 4.4.#.$.A M M L L m Q T 3 3 3 3 3 3 3 2 2 2 < < < I bXbXbXbXbXbXbXbX",
"bXbXbXbXbXbXn.v.v.v.v.] OXfXhXhXhXhXhXhXjXhXjXjXrX*Xu./ / / 4.$.$.A K w.%XtXiXpXyXyXyXyXyXyXpXwX2.; < 1 1 < 1 , U bXbXbXbXbXbXbX",
"bXbXbXbXbXbXv.+. . .v.] n.uXvXvXvXvXvXvXvXvXvXvXvXvXvX2X8.F G 5.A A @XcXvXvXvXvXvXvXvXvXvXvXvX X> > 2 2 < 1 1 , : bXbXbXbXbXbXbX",
"bXbXbXbXbXbX[ +.+.+.+.+.^ XXcXvXvXvXvXvXvXvXvXvXvXvXvXvX0X6.D G Z =XvXvXvXvXvXvXvXvXvXvXvXvX-X; ; 1 1 < < , , , , U bXbXbXbXbXbX",
"bXbXbXbXbX[ [ [ [ [ +.o.^ ^ 9XzXzXzXzXzXzXzXzXzXvXvXvXvXvX1XD j '.cXvXvXvXcXlXzXlXlXkXxXkX5X> ; 1 2 2 < 1 , , , : c bXbXbXbXbXbX",
"bXbXbXbXbX{ [ { { { [ [ [ ^ O.(.(.(.(.(.(.).).oX2XlXvXvXvXlXe.Z iXvXvXvXkX}.p.s.s.s.s.3.a.R ; 2 2 2 < < < , , : I I bXbXbXbXbXbX",
"bXbXbXbXbX{ ' { _ { ' { { { ) u u u y y y t t r r i.lXvXvXvX+Xe.kXvXvXcXp.- - = % % % % % > 2 < 1 2 2 , , Y , , I z bXbXbXbXbXbX",
"bXbXbXbXbX_ _ _ _ ' ' ' _ ' 8.' ( 8.8.4.4.4.5.4.D C $XvXvXvX3X+XzXvXvXeXU 1 Y 2 2 2 3 2 2 2 2 2 2 1 1 < , , I I z z L bXbXbXbXbX",
"bXbXbXbX0.4.4.4.7._ 7.7.4.7.7.7.7.4.7.4.4.5.5.5.G C e.cXvXvXqX#XlXvXvX8XY Y 2 2 2 2 2 2 2 2 2 1 < < 1 1 Y I I z I z M bXbXbXbXbX",
"bXbXbXbX9.5.4.4.4.5.4.5.4.4.4.4.7.5.5.5.$.$.$.G P Z q.lXvXvXwX`.dXvXvXzX=.= > > > > > > 2 2 < < < < 1 1 Y I : z z z x bXbXbXbXbX",
"bXbXbXbX5.$.G G $.#.#.#.F #.G 4.$.$.5.5.G $.G P P k y.cXvXvX8X,.yXvXvXvXwX1.2 2 3 2 > % ; 2 2 2 Y , 1 , , , z z z z l bXbXbXbXbX",
"bXbXbXbX%.G G G F $.$.F G $.G G D P $.H H H H b l J 8XvXvXvX,X- &XvXvXvXvXgXwXwXwXwX5X[.W % > 1 1 1 1 I 1 : z z z z d bXbXbXbXbX",
"bXbXbXbXG P G P A A K G P G P P P P K %.K L L L q.4XvXvXvXcXd.# E pXvXvXvXvXvXvXvXvXvXcXpXs.& 2 1 , 1 , I z z z d d l bXbXbXbXbX",
"bXbXbXbXK K P K K K P K P K K P K K M h.sXiXiXiXgXvXvXvXvXwX3 < & :.pXvXvXvXvXvXvXvXvXvXvXlXf.& 1 1 : z , z l + x l v bXbXbXbXbX",
"bXbXbXbXL J L B B B B B J L J J J J H &.cXvXvXvXvXvXvXvXgX1.; 2 2 ; W  XgXvXvXvXvXvXvXvXvXvXdX=.* Y , z z z : z l O v bXbXbXbXbX",
"bXbXbXbXN m N N m B J B L N N J N N N z ].vXvXvXvXvXvXaX2.; 2 2 3 2 > > *.3.f.f.f.d.6XvXvXvXvX-X- , : z : z z l l g v bXbXbXbXbX",
"bXbXbXbX! c m Q m m Q N N N m m T N N m N pXvXvXvXcX&XR > 2 2 2 2 2 2 > > > > > > > 1 &XvXvXvXpX=.+ z z z l l l l a b bXbXbXbXbX",
"bXbXbXbXbXT T T T T T T T T Q U U T U Y I p.vXvXvXcX{.% 2 2 2 2 2 > 3 > 2 2 < < < 2 ; -.lXvXvXgX<.X x : : l l l g a A bXbXbXbXbX",
"bXbXbXbXbXU Y U Y 3 U T T U U T U U Y Y Y Y 6XvXvXvXaX;.; 2 2 2 > 3 2 3 2 2 < 2 2 1 2 R pXvXvXkX<.X x z O l l a g a bXbXbXbXbXbX",
"bXbXbXbXbXR < Y 3 2 3 2 Y Y Y Y Y Y < Y 2 2 >.cXvXvXvX;X; 2 2 2 2 2 > 2 2 2 1 > 2 < ; :.cXvXvXdX,.X x l l l d g a h bXbXbXbXbXbX",
"bXbXbXbXbX*.2 1 2 2 2 3 2 2 2 2 < Y 2 2 2 > >  XvXvXvXkX2.& 2 > 2 > > > > > > > < 2 -.wXvXvXvXqXN O l v l g v s a f bXbXbXbXbXbX",
"bXbXbXbXbXbX2 2 3 > 3 > 2 3 2 3 3 2 2 2 2 2 > *.kXvXvXvX7X; W -X5X5X<X<X<X>X<X<X<X7XlXvXvXvXvX].. l l v v g a s s bXbXbXbXbXbXbX",
"bXbXbXbXbXbX2 > > 3 2 2 > > 2 > > 2 2 2 2 2 2 > g.vXvXvXcXs.# ;XvXvXvXvXvXvXvXvXvXvXvXvXvXvXqXN O v v g v g g s h bXbXbXbXbXbXbX",
"bXbXbXbXbXbXbX2 2 2 3 > 3 2 3 2 3 2 2 2 2 2 2 > R eXvXvXvXyX1 2 eXvXvXvXvXvXvXvXvXvXvXvXvXiX&.X x v v v g a s a n bXbXbXbXbXbXbX",
"bXbXbXbXbXbXbX3 > 3 > 3 3 > > 2 3 > 2 2 2 2 2 > ; a.lXvXvXvX}.@ 3.lXvXxXcXvXcXvXvXcXcXkX:XV . l v v v j s s a h bXbXbXbXbXbXbXbX",
"bXbXbXbXbXbXbXbX2 2 2 Y 2 2 Y 2 2 2 2 2 2 2 Y < > Y j.&X|.-Xd.1 ; f.|.}.}.}.}.}.}.}.h.,.+ o l v v v j j a p a n bXbXbXbXbXbXbXbX",
"bXbXbXbXbXbXbXbX2 2 2 Y Y 2 > Y 1 2 2 2 2 2 1 < < < * * * $ - , < * $ $ * $           o l x v g g j s s p p s bXbXbXbXbXbXbXbXbX",
"bXbXbXbXbXbXbXbXbX2 2 1 Y > Y > < 1 2 < < < < < 1 < < Y 3 , , , , I I I I I z z z z z l l l l l j s s s s a bXbXbXbXbXbXbXbXbXbX",
"bXbXbXbXbXbXbXbXbXW > < > Y > Y 2 1 < 2 < < Y < 1 1 I < 1 , , , I I I z z z z z z l l l l d a j s s s s s k bXbXbXbXbXbXbXbXbXbX",
"bXbXbXbXbXbXbXbXbXbXR < Y < < < 2 2 1 1 1 1 1 , < 1 , , I U c : : : z z z z z z d l l d l g a j s s s a p bXbXbXbXbXbXbXbXbXbXbX",
"bXbXbXbXbXbXbXbXbXbXbXY > Y < Y 1 1 1 , 1 < 1 , , Y I z c : : z z x z x z l l l l l l l s s a p s s a f bXbXbXbXbXbXbXbXbXbXbXbX",
"bXbXbXbXbXbXbXbXbXbXbXbXI < , I , 1 , I Y I , Y I : : z : + x z : l l l l x l l l v v a s f s s s p p bXbXbXbXbXbXbXbXbXbXbXbXbX",
"bXbXbXbXbXbXbXbXbXbXbXbXbXY Y I 1 , , , , , I I z : : z x z z l x : l l l l l l l a g g s s s s s k bXbXbXbXbXbXbXbXbXbXbXbXbXbX",
"bXbXbXbXbXbXbXbXbXbXbXbXbXbXU z I : : , : : I z z z z z z z l l l l l l l l g g a s s s s s s s h bXbXbXbXbXbXbXbXbXbXbXbXbXbXbX",
"bXbXbXbXbXbXbXbXbXbXbXbXbXbXbXU , : z z z c l z z l z z l l l l l d l l a l a j p s s s s s s h bXbXbXbXbXbXbXbXbXbXbXbXbXbXbXbX",
"bXbXbXbXbXbXbXbXbXbXbXbXbXbXbXbXbXc z z : x z z z l l l l l v d a l g g g a s s s s s s p s j bXbXbXbXbXbXbXbXbXbXbXbXbXbXbXbXbX",
"bXbXbXbXbXbXbXbXbXbXbXbXbXbXbXbXbXbXN c z + l z z l l l v a v j g a a g s j s s s p p s k bXbXbXbXbXbXbXbXbXbXbXbXbXbXbXbXbXbXbX",
"bXbXbXbXbXbXbXbXbXbXbXbXbXbXbXbXbXbXbXbXx x l v d l v a a g s g a s s s s s s p s s k bXbXbXbXbXbXbXbXbXbXbXbXbXbXbXbXbXbXbXbXbX",
"bXbXbXbXbXbXbXbXbXbXbXbXbXbXbXbXbXbXbXbXbXbXbXb g a a a j s a a s s a p a a h k bXbXbXbXbXbXbXbXbXbXbXbXbXbXbXbXbXbXbXbXbXbXbXbX",
"bXbXbXbXbXbXbXbXbXbXbXbXbXbXbXbXbXbXbXbXbXbXbXbXbXbXj v j j j j j j k k k bXbXbXbXbXbXbXbXbXbXbXbXbXbXbXbXbXbXbXbXbXbXbXbXbXbXbX",
"bXbXbXbXbXbXbXbXbXbXbXbXbXbXbXbXbXbXbXbXbXbXbXbXbXbXbXbXbXbXbXbXbXbXbXbXbXbXbXbXbXbXbXbXbXbXbXbXbXbXbXbXbXbXbXbXbXbXbXbXbXbXbXbX"
};
