/* XPM */
static char *_88e37b87feb4338f374860eb2f54ea6[] = {
/* columns rows colors chars-per-pixel */
"16 16 149 2 ",
"   c #CE157E",
".  c #CE157F",
"X  c #D61679",
"o  c #D5157A",
"O  c #D91778",
"+  c #DD1E7A",
"@  c #EC0D68",
"#  c #E01B77",
"$  c #EB1B71",
"%  c #EC1970",
"&  c #EC1C71",
"*  c #DF237E",
"=  c #DD247F",
"-  c #DE257F",
";  c #EF2476",
":  c #E62279",
">  c #E6257C",
",  c #E92278",
"<  c #E82378",
"1  c #E82379",
"2  c #E8257B",
"3  c #ED2578",
"4  c #E7287D",
"5  c #E4287E",
"6  c #E12C7F",
"7  c #E72D7F",
"8  c #ED297A",
"9  c #EE287A",
"0  c #ED2B7B",
"q  c #EE2A7B",
"w  c #ED2C7B",
"e  c #ED307D",
"r  c #EF357F",
"t  c #7E6EE6",
"y  c #7E71EA",
"u  c #7778F2",
"i  c #BE3FA4",
"p  c #CF1B82",
"a  c #C81C87",
"s  c #C81D87",
"d  c #CB1E86",
"f  c #C91F88",
"g  c #CA1F88",
"h  c #CF2386",
"j  c #C9238A",
"k  c #CD2188",
"l  c #C52F8D",
"z  c #C8298A",
"x  c #C92C8F",
"c  c #D62383",
"v  c #D12285",
"b  c #D52384",
"n  c #D82482",
"m  c #DF2A81",
"M  c #DC2883",
"N  c #DE2A82",
"B  c #D82A85",
"V  c #D32A89",
"C  c #DF3287",
"Z  c #C92E90",
"A  c #C73094",
"S  c #C73696",
"D  c #CF3693",
"F  c #C0359C",
"G  c #C4389A",
"H  c #D53890",
"J  c #D43A92",
"K  c #D03B96",
"L  c #D03C96",
"P  c #E52E80",
"I  c #E03286",
"U  c #EC3382",
"Y  c #EA3482",
"T  c #E93584",
"R  c #ED3885",
"E  c #EF3F87",
"W  c #ED3E88",
"Q  c #9F4EBC",
"!  c #BF44A5",
"~  c #BD47A6",
"^  c #B84BAC",
"/  c #BE52AF",
"(  c #B34CB3",
")  c #B54EB1",
"_  c #B04DB4",
"`  c #A954BC",
"'  c #B455B7",
"]  c #C4419E",
"[  c #E8559A",
"{  c #C443A1",
"}  c #C246A6",
"|  c #DB5EA9",
" . c #DA61AA",
".. c #E060A6",
"X. c #EE6BA6",
"o. c #E569A9",
"O. c #F36AA2",
"+. c #E977AF",
"@. c #F273A6",
"#. c #F471A7",
"$. c #F174A9",
"%. c #EA7CB2",
"&. c #9553C3",
"*. c #9059CE",
"=. c #9B5CC9",
"-. c #A658C0",
";. c #A658C3",
":. c #9662CF",
">. c #9C62CF",
",. c #8D66DA",
"<. c #9260D5",
"1. c #9165D8",
"2. c #906CD8",
"3. c #916CDA",
"4. c #A762C9",
"5. c #836DE5",
"6. c #836EE4",
"7. c #896FE2",
"8. c #8F7BE0",
"9. c #F289B7",
"0. c #F58BB7",
"q. c #F691BA",
"w. c #F699BF",
"e. c #BF91D9",
"r. c #908AE9",
"t. c #C687CF",
"y. c #C391D6",
"u. c #E086C0",
"i. c #EA9DCA",
"p. c #F49BC2",
"a. c #F29DC5",
"s. c #F1A1C8",
"d. c #F8AAC9",
"f. c #E0B3DD",
"g. c #F8B8D2",
"h. c #F9B8D3",
"j. c #E9C4E3",
"k. c #EFC6E2",
"l. c #F3CCE4",
"z. c #F8CFE3",
"x. c #FBD7E6",
"c. c #FCD7E6",
"v. c #F0D1E9",
"b. c #FBDDEB",
"n. c #FDE0EB",
"m. c #FEE4EE",
"M. c #FCF2F7",
"N. c gray100",
"B. c None",
/* pixels */
"B.B.B.B.r.8.B.B.B.B.B.B.B.B.B.B.",
"B.3.y B.B.>.B.B.B.B.B.B.B.B.B.B.",
"B.1.t u B.2.:.;.) { J B.B.B.B.B.",
"B.B.7.5.6.,.=.` ^ ] J 7 r B.B.B.",
"B.B.B.<.*.&.Q _ ! S B 1 ; Y B.B.",
"B.B.;.4.e.y.t./ G  .+.@.E 1 B.B.",
"B.B.( ' f.j.v.k.u.b.g.d.R : m B.",
"B.B.} ! i F A l.M.p.$ % : 5 m B.",
"B.B.L L D | i.z.$.x.n.d.P 5 b B.",
"B.B.I C m [ N.#.@ w W x.%.X h B.",
"B.B.e 9 0 % w.g.O.q.0.m.... z B.",
"B.B.B.9 0 3 U 9.X.a.s.o.p f B.B.",
"B.B.B.R 2 4 2 # + O X . a l B.B.",
"B.B.B.B.6 M = n c v a a x B.B.B.",
"B.B.B.B.B.B.V k k k Z B.B.B.B.B.",
"B.B.B.B.B.B.B.B.B.B.B.B.B.B.B.B."
};
