/* XPM */
static char *a8bb1d1bec074e97b6f0099be06011f6[] = {
/* columns rows colors chars-per-pixel */
"32 32 154 2 ",
"   c #DE1876",
".  c #D7167B",
"X  c #D91778",
"o  c #D31B7F",
"O  c #DD1878",
"+  c #E9106D",
"@  c #E51572",
"#  c #E41D76",
"$  c #EB1C72",
"%  c #E11D79",
"&  c #DE257F",
"*  c #DE2B7F",
"=  c #E72077",
"-  c #ED2275",
";  c #E2267D",
":  c #EA267A",
">  c #E6297D",
",  c #EC2A7B",
"<  c #EE327E",
"1  c #786EEE",
"2  c #7D72EC",
"3  c #7975F1",
"4  c #7579F5",
"5  c #BB3DA3",
"6  c #C61D87",
"7  c #CB1E87",
"8  c #C91D88",
"9  c #CE2186",
"0  c #CA2289",
"q  c #CA2A8D",
"w  c #D42283",
"e  c #DB2581",
"r  c #D72B83",
"t  c #DC2C85",
"y  c #D42E8C",
"u  c #D82D89",
"i  c #C6348E",
"p  c #DE3287",
"a  c #DC3489",
"s  c #D7388F",
"d  c #C72E94",
"f  c #CA3392",
"g  c #CC3A97",
"h  c #C2349B",
"j  c #C73F9E",
"k  c #CB3D9A",
"l  c #D03392",
"z  c #D53992",
"x  c #D03D99",
"c  c #E52E81",
"v  c #E92F80",
"b  c #E43283",
"n  c #EC3582",
"m  c #ED3983",
"M  c #EA3E88",
"N  c #9D4EBC",
"B  c #9A52BF",
"V  c #BF46A4",
"C  c #BD48A7",
"Z  c #BD47AA",
"A  c #BB4AAC",
"S  c #A84AB6",
"D  c #A24CBB",
"F  c #A94AB8",
"G  c #B44EB2",
"H  c #A456BF",
"J  c #AC52BB",
"K  c #AC5EBF",
"L  c #B353B5",
"P  c #BE59B3",
"I  c #C4419F",
"U  c #D3429B",
"Y  c #D64B9F",
"T  c #DC519F",
"R  c #E2408D",
"E  c #EA408B",
"W  c #F04A8D",
"Q  c #E14390",
"!  c #E14E9A",
"~  c #ED5395",
"^  c #EA5E9D",
"/  c #EF629F",
"(  c #F2629D",
")  c #C343A2",
"_  c #C843A1",
"`  c #C44BA8",
"'  c #CC54A8",
"]  c #D657A7",
"[  c #DD72B4",
"{  c #D375BB",
"}  c #EE6AA4",
"|  c #E46AAB",
" . c #F265A0",
".. c #EE71A7",
"X. c #EA75AE",
"o. c #F372A6",
"O. c #F475A9",
"+. c #E473B1",
"@. c #9954C5",
"#. c #9E5BC4",
"$. c #9957C9",
"%. c #9B5ECC",
"&. c #A457C1",
"*. c #A059C2",
"=. c #9D60CE",
"-. c #8F67D4",
";. c #8B66DC",
":. c #8B69DD",
">. c #9462D4",
",. c #9966D2",
"<. c #996BD4",
"1. c #9365D9",
"2. c #8A70D9",
"3. c #A261C2",
"4. c #836DE4",
"5. c #8D6EE0",
"6. c #8373E4",
"7. c #8377E8",
"8. c #7F83F2",
"9. c #E385BE",
"0. c #EE8CBB",
"q. c #F282B3",
"w. c #F58AB5",
"e. c #F492BC",
"r. c #BD88D4",
"t. c #CA82C9",
"y. c #C98FD4",
"u. c #C692D7",
"i. c #C494D9",
"p. c #D69BD2",
"a. c #DC9ED1",
"s. c #EB95C4",
"d. c #F194C0",
"f. c #F49BC1",
"g. c #DBA2D3",
"h. c #D2A0D9",
"j. c #F6A6C9",
"k. c #F8B3CF",
"l. c #E9ADD5",
"z. c #EEB3D5",
"x. c #EABCDF",
"c. c #F4B2D1",
"v. c #F9B6D2",
"b. c #F7BED7",
"n. c #F9C1D9",
"m. c #F9CEE2",
"M. c #FBD3E3",
"N. c #FCD8E6",
"B. c #F7D6E8",
"V. c #FCDFEC",
"C. c #FBECF4",
"Z. c #FDF0F5",
"A. c #FFFEFE",
"S. c None",
/* pixels */
"S.S.S.S.S.S.S.S.S.S.S.S.S.S.S.S.S.S.S.S.S.S.S.S.S.S.S.S.S.S.S.S.",
"S.S.S.S.S.S.S.S.S.8.S.S.S.S.S.S.S.S.S.S.S.S.S.S.S.S.S.S.S.S.S.S.",
"S.S.S.S.S.S.S.S.7.1 -.S.S.S.S.S.S.S.S.S.S.S.S.S.S.S.S.S.S.S.S.S.",
"S.S.S.:.4.3 S.S.<.1.=.S.S.S.S.S.S.S.S.S.S.S.S.S.S.S.S.S.S.S.S.S.",
"S.S.1.:.4.3 4 S.S.S.S.S.S.3.K L A ` S.S.S.S.S.S.S.S.S.S.S.S.S.S.",
"S.S.1.;.2 2 3 S.S.S.2.-.=.*.H S G ) I z a S.S.S.S.S.S.S.S.S.S.S.",
"S.S.<.;.4.2 3 2 2 6.;.>.=.*.J G Z ) k z a c n S.S.S.S.S.S.S.S.S.",
"S.S.S.S.:.5.4.4.4.:.-.>.#.H J G C ) k z a c , < S.S.S.S.S.S.S.S.",
"S.S.S.S.S.S.:.:.1.1.>.#.H H L A ) I g s p < , , n S.S.S.S.S.S.S.",
"S.S.S.S.S.S.>.>.>.=.#.#.H J G C ) I g a p < , , , > S.S.S.S.S.S.",
"S.S.,.S.S.=.%.$.@.B N D S G A ` I g y r = = - , : : S.S.S.S.S.S.",
"S.S.S.S.S.&.&.r.i.u.y.y.t.P 5 ) g Y +.X...o.O.m : : b S.S.S.S.S.",
"S.S.S.S.L J F h.A.A.A.A.A.C.{ d [ C.A.A.A.A.v.: : > > S.S.S.S.S.",
"S.S.S.S.G G G L p.g.g.a.x.A.C.] C.A.j.e.e.w.< : > > ; p S.S.S.S.",
"S.S.S.S.` Z Z Z 5 5 5 h h l.A.z.A.c.@ $ $ $ : : : e e p S.S.S.S.",
"S.S.S.' j j ) ) ) _ j g q 9.A.c.A.m.< : , $ : > > > e r S.S.S.S.",
"S.S.S.U x x x x g x Y U T B.A.^ b.A.C.N.m.w.: ; ; * e w S.S.S.S.",
"S.S.S.z z z z z z u s.Z.A.A.v.$ m k.C.A.A.A.e.= & e w r S.S.S.S.",
"S.S.S.S.p p b a a c Q Z.A.j., , - - m n ~ C.A.M & o w 9 S.S.S.S.",
"S.S.S.S.c c v v c c # q.A.v.- - - - @ $ + b.A.! o w 7 q S.S.S.S.",
"S.S.S.S.< , , , , , , , M.A. .W O.O.O.o.e.A.C.u w 9 7 S.S.S.S.S.",
"S.S.S.S.n , , , , , , - ( A.V./ A.A.A.A.A.Z.| o 9 0 0 S.S.S.S.S.",
"S.S.S.S.S., , , , , , , : q.f.M } e.e.d.0.! o 9 0 6 i S.S.S.S.S.",
"S.S.S.S.S.M : v , , : : > # # > %   O X . w 7 9 6 0 S.S.S.S.S.S.",
"S.S.S.S.S.S.n > > > > > > e ; e e e e w w 9 8 6 6 S.S.S.S.S.S.S.",
"S.S.S.S.S.S.S.c > > > ; ; e e e w w w w 9 8 8 0 S.S.S.S.S.S.S.S.",
"S.S.S.S.S.S.S.S.; e e e e e w w w w 7 7 6 8 6 S.S.S.S.S.S.S.S.S.",
"S.S.S.S.S.S.S.S.S.S.r w w w 9 7 7 0 8 6 0 d S.S.S.S.S.S.S.S.S.S.",
"S.S.S.S.S.S.S.S.S.S.S.S.l 9 0 0 0 0 f S.S.S.S.S.S.S.S.S.S.S.S.S.",
"S.S.S.S.S.S.S.S.S.S.S.S.S.S.S.S.S.S.S.S.S.S.S.S.S.S.S.S.S.S.S.S.",
"S.S.S.S.S.S.S.S.S.S.S.S.S.S.S.S.S.S.S.S.S.S.S.S.S.S.S.S.S.S.S.S.",
"S.S.S.S.S.S.S.S.S.S.S.S.S.S.S.S.S.S.S.S.S.S.S.S.S.S.S.S.S.S.S.S."
};
